<svg width="276" height="254" viewBox="0 0 276 254" fill="none" xmlns="http://www.w3.org/2000/svg">
<mask id="mask0_1_428" style="mask-type:alpha" maskUnits="userSpaceOnUse" x="58" y="98" width="41" height="22">
<path d="M58.1406 98H98.6667V119.333H58.1406V98Z" fill="white"/>
</mask>
<g mask="url(#mask0_1_428)">
<path fill-rule="evenodd" clip-rule="evenodd" d="M66.8385 98.3386L58.2031 112.37C74.3021 109.833 87.401 112.005 97.4688 118.901C90.151 109.208 79.9375 102.349 66.8281 98.3386H66.8385Z" fill="#F5A71E"/>
</g>
<path fill-rule="evenodd" clip-rule="evenodd" d="M59.7285 90.9896C78.4473 93.5 92.9837 102.672 103.317 118.5C100.734 102.516 92.6191 89.7917 78.9473 80.2917L59.7285 90.9896Z" fill="#0E0F3D"/>
<path fill-rule="evenodd" clip-rule="evenodd" d="M69.2031 64.724C94.7292 81.1511 108.562 103.755 110.698 132.516C114.964 109.833 108.599 89.5052 91.625 71.5313C105.849 67.4584 116.807 57.8282 124.49 42.6407C149.839 86.6771 141.76 121.87 100.26 148.224C152.823 130.057 160.719 74.6667 123.943 25.4115C115.75 52.7761 97.5104 65.8855 69.2135 64.724H69.2031Z" fill="#F5A71E"/>
<mask id="mask1_1_428" style="mask-type:alpha" maskUnits="userSpaceOnUse" x="98" y="18" width="121" height="140">
<path d="M98.666 18H218.14V157.958H98.666V18Z" fill="white"/>
</mask>
<g mask="url(#mask1_1_428)">
<path fill-rule="evenodd" clip-rule="evenodd" d="M132.161 19.3073C175.943 74.5781 162.021 137.188 98.7344 157.958C165.089 154.13 204.865 111.849 218.094 31.1094C200.641 54.7188 171.99 50.7865 132.161 19.3073Z" fill="#0E0F3D"/>
</g>
<mask id="mask2_1_428" style="mask-type:alpha" maskUnits="userSpaceOnUse" x="170" y="0" width="34" height="34">
<path d="M170.666 0.958374H203.999V34H170.666V0.958374Z" fill="white"/>
</mask>
<g mask="url(#mask2_1_428)">
<path fill-rule="evenodd" clip-rule="evenodd" d="M186.885 32.9063C195.708 32.9063 202.906 25.7344 202.906 16.9271C202.906 8.12504 195.718 0.942749 186.885 0.942749C178.067 0.942749 170.869 8.11463 170.869 16.9271C170.869 25.724 178.067 32.9063 186.885 32.9063Z" fill="#0E0F3D"/>
</g>
<path fill-rule="evenodd" clip-rule="evenodd" d="M124.985 84.6094C125.506 85.5208 125.235 86.4167 124.136 87.2917L122.089 83.7396C122.923 83.5937 123.563 83.5937 123.98 83.724C124.397 83.8698 124.74 84.1563 125.001 84.599L124.985 84.6094ZM117.147 80.7188C116.298 80.8646 115.683 80.8646 115.282 80.7188C114.876 80.5625 114.563 80.3021 114.339 79.9115C114.105 79.5104 114.042 79.0781 114.157 78.6354C114.277 78.1927 114.6 77.75 115.173 77.3073L117.157 80.7344L117.147 80.7188ZM128.584 82.2812C127.766 80.8646 126.667 79.9792 125.298 79.625C123.928 79.276 122.131 79.3906 119.897 79.9792L117.678 76.151C118.292 75.9688 118.943 75.8646 119.626 75.8281C120.303 75.7865 120.995 75.7865 121.699 75.8385L121.683 71.8958C120.709 71.8021 119.74 71.8281 118.787 71.9583C117.834 72.0885 116.87 72.349 115.865 72.7396L114.99 71.2188L112.344 72.7396L113.193 74.2135C112.449 74.7604 111.824 75.3437 111.313 75.9948C110.803 76.6302 110.438 77.3073 110.23 78.0104C110.011 78.7135 109.943 79.4167 110.022 80.1458C110.1 80.8646 110.35 81.5781 110.751 82.2917C111.183 83.0365 111.678 83.6198 112.225 84.0625C112.787 84.4948 113.412 84.7917 114.105 84.9635C114.798 85.1302 115.579 85.1719 116.438 85.0781C117.303 85 118.266 84.8177 119.339 84.5469L121.673 88.5781C120.824 88.8646 119.975 89.0208 119.115 89.0469C118.266 89.0729 117.339 89.0365 116.334 88.9062L116.022 92.9375C117.235 93.0938 118.49 93.0833 119.74 92.901C121.006 92.7188 122.235 92.3906 123.407 91.8854L124.897 94.4479L127.542 92.9271L126.094 90.4167C126.865 89.8698 127.49 89.2552 128.001 88.6042C128.506 87.9531 128.86 87.276 129.084 86.5729C129.303 85.875 129.37 85.1719 129.303 84.4427C129.24 83.7135 128.99 82.9948 128.584 82.2917V82.2812Z" fill="#F5A71E"/>
<path d="M105.161 177.298C107.578 177.298 109.938 177.653 112.245 178.361C114.547 179.059 116.255 179.746 117.37 180.423L118.995 181.507L114.891 189.611C114.568 189.392 114.12 189.111 113.536 188.778C112.964 188.434 111.891 187.976 110.307 187.403C108.724 186.819 107.245 186.528 105.87 186.528C104.172 186.528 102.87 186.892 101.953 187.611C101.036 188.335 100.578 189.309 100.578 190.528C100.578 191.142 100.792 191.71 101.224 192.236C101.651 192.752 102.391 193.309 103.432 193.903C104.484 194.502 105.411 194.981 106.203 195.34C106.995 195.689 108.214 196.226 109.87 196.944C112.745 198.168 115.193 199.835 117.224 201.944C119.266 204.059 120.286 206.439 120.286 209.09C120.286 211.647 119.828 213.882 118.911 215.798C117.995 217.705 116.729 219.194 115.12 220.278C113.521 221.361 111.75 222.163 109.807 222.673C107.859 223.199 105.755 223.465 103.495 223.465C101.547 223.465 99.6406 223.262 97.7656 222.861C95.901 222.476 94.3385 221.981 93.0781 221.382C91.8125 220.788 90.6719 220.205 89.6615 219.632C88.6615 219.048 87.9219 218.564 87.4531 218.173L86.7656 217.569L91.8281 209.048C92.2552 209.413 92.849 209.871 93.599 210.423C94.3594 210.981 95.7083 211.731 97.6406 212.673C99.5677 213.606 101.271 214.069 102.745 214.069C107.021 214.069 109.161 212.611 109.161 209.694C109.161 209.085 109.005 208.522 108.703 208.007C108.396 207.481 107.854 206.96 107.078 206.444C106.313 205.918 105.63 205.502 105.036 205.194C104.438 204.877 103.464 204.403 102.12 203.778C100.771 203.153 99.7708 202.673 99.1198 202.34C96.4219 201.022 94.3333 199.361 92.849 197.361C91.375 195.361 90.6406 193.21 90.6406 190.903C90.6406 186.903 92.1094 183.642 95.0573 181.111C98.0156 178.569 101.38 177.298 105.161 177.298Z" fill="#F5A71E"/>
<path d="M121.16 187.007V178.111H152.473V187.007H141.889V222.653H131.743V187.007H121.16Z" fill="#F5A71E"/>
<path d="M155.078 178.111H170.995C175.286 178.111 178.776 179.257 181.474 181.548C184.167 183.83 185.516 187.09 185.516 191.34C185.516 194.621 184.693 197.361 183.057 199.569C181.432 201.778 179.208 203.335 176.391 204.236L191.724 222.653H178.828L165.224 205.048V222.653H155.078V178.111ZM165.224 197.861H166.411C167.339 197.861 168.13 197.851 168.786 197.819C169.438 197.778 170.172 197.653 170.995 197.444C171.828 197.226 172.495 196.918 172.995 196.528C173.495 196.127 173.922 195.548 174.286 194.798C174.646 194.038 174.828 193.121 174.828 192.048C174.828 190.965 174.646 190.048 174.286 189.298C173.922 188.538 173.495 187.96 172.995 187.569C172.495 187.168 171.828 186.861 170.995 186.653C170.172 186.434 169.438 186.298 168.786 186.257C168.13 186.215 167.339 186.194 166.411 186.194H165.224V197.861Z" fill="#F5A71E"/>
<path d="M4.15299 243C4.653 243 5.13737 243.078 5.61133 243.229C6.0957 243.37 6.44987 243.51 6.67383 243.646L7.00716 243.875L6.153 245.542C6.0957 245.5 6.00716 245.448 5.88216 245.375C5.76758 245.307 5.54883 245.219 5.2155 245.104C4.89258 244.979 4.5905 244.917 4.29883 244.917C3.94987 244.917 3.67904 244.995 3.48633 245.146C3.30404 245.286 3.21549 245.479 3.21549 245.729C3.21549 245.854 3.25716 245.974 3.34049 246.083C3.43425 246.198 3.59049 246.312 3.79883 246.438C4.01758 246.552 4.20508 246.646 4.36133 246.729C4.528 246.802 4.7832 246.911 5.13216 247.062C5.72591 247.312 6.23633 247.656 6.653 248.083C7.06966 248.516 7.278 249.01 7.278 249.562C7.278 250.094 7.17904 250.552 6.98633 250.938C6.80404 251.328 6.54883 251.641 6.2155 251.875C5.88216 252.099 5.51237 252.26 5.11133 252.354C4.70508 252.464 4.27799 252.521 3.81966 252.521C3.41341 252.521 3.01758 252.479 2.63216 252.396C2.24154 252.312 1.91341 252.219 1.65299 252.104C1.40299 251.979 1.17383 251.865 0.965495 251.75C0.757161 251.625 0.600912 251.521 0.507161 251.438L0.361328 251.312L1.40299 249.542C1.49674 249.625 1.62174 249.724 1.77799 249.833C1.92904 249.948 2.19987 250.099 2.59049 250.292C2.99154 250.49 3.3457 250.583 3.65299 250.583C4.53841 250.583 4.98633 250.286 4.98633 249.688C4.98633 249.562 4.94987 249.448 4.88216 249.333C4.82487 249.224 4.7155 249.12 4.54883 249.021C4.39258 248.911 4.25716 248.828 4.13216 248.771C4.00716 248.703 3.80404 248.604 3.52799 248.479C3.24674 248.344 3.04883 248.24 2.92383 248.167C2.36654 247.891 1.93425 247.552 1.63216 247.146C1.32487 246.729 1.17383 246.286 1.17383 245.812C1.17383 244.995 1.4707 244.323 2.06966 243.792C2.67904 243.266 3.37174 243 4.15299 243Z" fill="#0E0F3D"/>
<path d="M19.9102 243.167V245.021H16.7435V246.833H19.7852V248.667H16.7435V250.521H19.9102V252.354H14.6602V243.167H19.9102Z" fill="#0E0F3D"/>
<path d="M32.3952 250.458C32.7129 250.458 33.0254 250.411 33.3327 250.312C33.6348 250.219 33.8587 250.125 33.9993 250.042L34.2077 249.896L35.1035 251.667C35.0723 251.698 35.0306 251.729 34.9785 251.771C34.9212 251.802 34.7962 251.87 34.6035 251.979C34.4212 252.078 34.2181 252.161 33.9993 252.229C33.791 252.302 33.5098 252.359 33.166 252.417C32.8171 252.484 32.4577 252.521 32.0827 252.521C31.2337 252.521 30.4264 252.312 29.666 251.896C28.9004 251.479 28.2806 250.906 27.8118 250.167C27.3379 249.432 27.1035 248.641 27.1035 247.792C27.1035 247.141 27.2389 246.521 27.5202 245.938C27.7962 245.344 28.1556 244.833 28.6035 244.417C29.0618 243.99 29.5931 243.646 30.2077 243.396C30.8171 243.135 31.4421 243 32.0827 243C32.6764 243 33.2285 243.078 33.7285 243.229C34.2285 243.37 34.5827 243.51 34.791 243.646L35.1035 243.854L34.2077 245.625C34.1504 245.583 34.0671 245.536 33.9577 245.479C33.8587 245.411 33.6504 245.328 33.3327 245.229C33.0254 245.12 32.7129 245.062 32.3952 245.062C31.8952 245.062 31.4421 245.146 31.041 245.312C30.6348 245.479 30.3171 245.698 30.0827 245.958C29.8587 246.224 29.6868 246.51 29.5618 246.812C29.4368 247.12 29.3743 247.432 29.3743 247.75C29.3743 248.458 29.6348 249.094 30.166 249.646C30.6921 250.188 31.4368 250.458 32.3952 250.458Z" fill="#0E0F3D"/>
<path d="M49.3659 243.167V249.104C49.3659 250.229 49.0586 251.083 48.4492 251.667C47.8346 252.24 46.9388 252.521 45.7617 252.521C44.5951 252.521 43.7044 252.24 43.0951 251.667C42.4961 251.083 42.1992 250.229 42.1992 249.104V243.167H44.2826V248.479C44.2826 249.229 44.3971 249.75 44.6367 250.042C44.8711 250.323 45.2513 250.458 45.7826 250.458C46.3086 250.458 46.6836 250.323 46.9076 250.042C47.1419 249.75 47.2617 249.229 47.2617 248.479V243.167H49.3659Z" fill="#0E0F3D"/>
<path d="M56.9883 243.167H60.2799C61.1549 243.167 61.8685 243.406 62.4258 243.875C62.9779 244.349 63.2591 245.021 63.2591 245.896C63.2591 246.578 63.0924 247.146 62.7591 247.604C62.4258 248.062 61.9674 248.385 61.3841 248.562L64.5508 252.354H61.8841L59.0716 248.729V252.354H56.9883V243.167ZM59.0716 247.25H59.3216C59.5143 247.25 59.6758 247.25 59.8008 247.25C59.9362 247.24 60.0924 247.208 60.2591 247.167C60.4362 247.115 60.5768 247.052 60.6758 246.979C60.7852 246.896 60.8737 246.781 60.9466 246.625C61.0143 246.458 61.0508 246.266 61.0508 246.042C61.0508 245.823 61.0143 245.635 60.9466 245.479C60.8737 245.328 60.7852 245.208 60.6758 245.125C60.5768 245.042 60.4362 244.979 60.2591 244.937C60.0924 244.896 59.9362 244.875 59.8008 244.875C59.6758 244.865 59.5143 244.854 59.3216 244.854H59.0716V247.25Z" fill="#0E0F3D"/>
<path d="M76.6094 243.167V245.021H73.4427V246.833H76.4844V248.667H73.4427V250.521H76.6094V252.354H71.3594V243.167H76.6094Z" fill="#0E0F3D"/>
<path d="M93.0762 245.021V243.167H99.5345V245.021H97.347V252.354H95.2637V245.021H93.0762Z" fill="#0E0F3D"/>
<path d="M106.697 243.167H109.989C110.864 243.167 111.577 243.406 112.135 243.875C112.687 244.349 112.968 245.021 112.968 245.896C112.968 246.578 112.801 247.146 112.468 247.604C112.135 248.062 111.676 248.385 111.093 248.562L114.26 252.354H111.593L108.781 248.729V252.354H106.697V243.167ZM108.781 247.25H109.031C109.223 247.25 109.385 247.25 109.51 247.25C109.645 247.24 109.801 247.208 109.968 247.167C110.145 247.115 110.286 247.052 110.385 246.979C110.494 246.896 110.583 246.781 110.656 246.625C110.723 246.458 110.76 246.266 110.76 246.042C110.76 245.823 110.723 245.635 110.656 245.479C110.583 245.328 110.494 245.208 110.385 245.125C110.286 245.042 110.145 244.979 109.968 244.937C109.801 244.896 109.645 244.875 109.51 244.875C109.385 244.865 109.223 244.854 109.031 244.854H108.781V247.25Z" fill="#0E0F3D"/>
<path d="M125.736 243.167L129.444 252.354H127.194L126.507 250.521H123.007L122.34 252.354H120.09L123.798 243.167H125.736ZM125.798 248.687L124.777 246.021H124.757L123.736 248.687H125.798Z" fill="#0E0F3D"/>
<path d="M136.197 243.167H138.864C140.14 243.167 141.229 243.604 142.135 244.479C143.036 245.354 143.489 246.448 143.489 247.75C143.489 249.083 143.036 250.187 142.135 251.062C141.229 251.927 140.14 252.354 138.864 252.354H136.197V243.167ZM138.281 250.479H138.614C139.374 250.479 139.999 250.224 140.489 249.708C140.973 249.198 141.218 248.552 141.218 247.771C141.218 246.995 140.973 246.349 140.489 245.833C139.999 245.307 139.374 245.042 138.614 245.042H138.281V250.479Z" fill="#0E0F3D"/>
<path d="M152.898 243.167V252.354H150.814V243.167H152.898Z" fill="#0E0F3D"/>
<path d="M162.73 246.667V252.354H160.646V243.167H162.73L166.396 248.875H166.417V243.167H168.501V252.354H166.417L162.751 246.667H162.73Z" fill="#0E0F3D"/>
<path d="M184.535 247.208V249.208C184.295 250.292 183.774 251.12 182.972 251.688C182.18 252.245 181.29 252.521 180.305 252.521C179.066 252.521 178.014 252.062 177.139 251.146C176.264 250.219 175.826 249.094 175.826 247.771C175.826 246.438 176.248 245.312 177.097 244.396C177.956 243.469 179.024 243 180.305 243C181.79 243 182.972 243.531 183.847 244.583L182.472 246.083C181.982 245.292 181.305 244.896 180.43 244.896C179.774 244.896 179.222 245.182 178.764 245.75C178.316 246.307 178.097 246.979 178.097 247.771C178.097 248.552 178.316 249.219 178.764 249.771C179.222 250.328 179.774 250.604 180.43 250.604C180.956 250.604 181.415 250.448 181.805 250.125C182.206 249.792 182.41 249.365 182.41 248.833H180.305V247.208H184.535Z" fill="#0E0F3D"/>
<path d="M201.314 243.167H204.606C205.481 243.167 206.195 243.406 206.752 243.875C207.304 244.349 207.585 245.021 207.585 245.896C207.585 246.578 207.419 247.146 207.085 247.604C206.752 248.062 206.294 248.385 205.71 248.562L208.877 252.354H206.21L203.398 248.729V252.354H201.314V243.167ZM203.398 247.25H203.648C203.84 247.25 204.002 247.25 204.127 247.25C204.262 247.24 204.419 247.208 204.585 247.167C204.762 247.115 204.903 247.052 205.002 246.979C205.111 246.896 205.2 246.781 205.273 246.625C205.34 246.458 205.377 246.266 205.377 246.042C205.377 245.823 205.34 245.635 205.273 245.479C205.2 245.328 205.111 245.208 205.002 245.125C204.903 245.042 204.762 244.979 204.585 244.937C204.419 244.896 204.262 244.875 204.127 244.875C204.002 244.865 203.84 244.854 203.648 244.854H203.398V247.25Z" fill="#0E0F3D"/>
<path d="M217.769 243.167V252.354H215.686V243.167H217.769Z" fill="#0E0F3D"/>
<path d="M233.81 247.208V249.208C233.57 250.292 233.049 251.12 232.247 251.688C231.456 252.245 230.565 252.521 229.581 252.521C228.341 252.521 227.289 252.062 226.414 251.146C225.539 250.219 225.102 249.094 225.102 247.771C225.102 246.438 225.523 245.312 226.372 244.396C227.232 243.469 228.299 243 229.581 243C231.065 243 232.247 243.531 233.122 244.583L231.747 246.083C231.258 245.292 230.581 244.896 229.706 244.896C229.049 244.896 228.497 245.182 228.039 245.75C227.591 246.307 227.372 246.979 227.372 247.771C227.372 248.552 227.591 249.219 228.039 249.771C228.497 250.328 229.049 250.604 229.706 250.604C230.232 250.604 230.69 250.448 231.081 250.125C231.482 249.792 231.685 249.365 231.685 248.833H229.581V247.208H233.81Z" fill="#0E0F3D"/>
<path d="M243.23 248.667V252.354H241.146V243.167H243.23V246.833H246.188V243.167H248.292V252.354H246.188V248.667H243.23Z" fill="#0E0F3D"/>
<path d="M255.449 245.021V243.167H261.908V245.021H259.72V252.354H257.637V245.021H255.449Z" fill="#0E0F3D"/>
<path d="M272.444 243C272.944 243 273.428 243.078 273.902 243.229C274.387 243.37 274.741 243.51 274.965 243.646L275.298 243.875L274.444 245.542C274.387 245.5 274.298 245.448 274.173 245.375C274.059 245.307 273.84 245.219 273.507 245.104C273.184 244.979 272.882 244.917 272.59 244.917C272.241 244.917 271.97 244.995 271.777 245.146C271.595 245.286 271.507 245.479 271.507 245.729C271.507 245.854 271.548 245.974 271.632 246.083C271.725 246.198 271.882 246.312 272.09 246.438C272.309 246.552 272.496 246.646 272.652 246.729C272.819 246.802 273.074 246.911 273.423 247.062C274.017 247.312 274.527 247.656 274.944 248.083C275.361 248.516 275.569 249.01 275.569 249.562C275.569 250.094 275.47 250.552 275.277 250.938C275.095 251.328 274.84 251.641 274.507 251.875C274.173 252.099 273.803 252.26 273.402 252.354C272.996 252.464 272.569 252.521 272.111 252.521C271.704 252.521 271.309 252.479 270.923 252.396C270.533 252.312 270.204 252.219 269.944 252.104C269.694 251.979 269.465 251.865 269.257 251.75C269.048 251.625 268.892 251.521 268.798 251.438L268.652 251.312L269.694 249.542C269.788 249.625 269.913 249.724 270.069 249.833C270.22 249.948 270.491 250.099 270.882 250.292C271.283 250.49 271.637 250.583 271.944 250.583C272.829 250.583 273.277 250.286 273.277 249.688C273.277 249.562 273.241 249.448 273.173 249.333C273.116 249.224 273.007 249.12 272.84 249.021C272.684 248.911 272.548 248.828 272.423 248.771C272.298 248.703 272.095 248.604 271.819 248.479C271.538 248.344 271.34 248.24 271.215 248.167C270.658 247.891 270.225 247.552 269.923 247.146C269.616 246.729 269.465 246.286 269.465 245.812C269.465 244.995 269.762 244.323 270.361 243.792C270.97 243.266 271.663 243 272.444 243Z" fill="#0E0F3D"/>
</svg>
