<svg xmlns="http://www.w3.org/2000/svg" viewBox="0 0 53.36 72.16">
  <defs>
    <style>.cls-1{fill:none;stroke:#394553;stroke-miterlimit:10;stroke-width:2.5px;}</style>
  </defs>
  <title>Asset 11</title>
  <g id="Layer_2" data-name="Layer 2">
    <g id="Calque_2" data-name="Calque 2">
      <path class="cls-1" d="M36.77,48c8,1.47,15.34,4.85,15.34,11,0,8.79-13.14,11.92-25.43,11.92S1.25,67.78,1.25,59c0-6.2,6.94-9.59,15.07-11.05"></path>
      <path class="cls-1" d="M36.79,54c4.46,1.05,7.37,2.79,7.37,4.75,0,3.22-7.83,5.83-17.48,5.83S9.2,61.94,9.2,58.72c0-1.91,2.75-3.6,7-4.66"></path>
      <path class="cls-1" d="M31.6,58.51V42.4h1a4,4,0,0,0,4-4V23.65a4,4,0,0,0-4-4h-12a4,4,0,0,0-4,4V38.42a4,4,0,0,0,4,4h1.06V58.51"></path>
      <path class="cls-1" d="M32.89,7.49a6.25,6.25,0,1,1-6.25-6.24A6.25,6.25,0,0,1,32.89,7.49Z"></path>
    </g>
  </g>
</svg>