<svg xmlns="http://www.w3.org/2000/svg" viewBox="0 0 45.7 65.74">
  <defs>
    <style>.cls-1,.cls-2{fill:none;stroke:#394553;stroke-linecap:round;stroke-width:2.5px;}.cls-1{stroke-miterlimit:10;}.cls-2{stroke-linejoin:round;}</style>
  </defs>
  <title>Asset 5</title>
  <g id="Layer_2" data-name="Layer 2">
    <g id="Calque_2" data-name="Calque 2">
      <line class="cls-1" x1="6.75" y1="18.49" x2="3.32" y2="16.86"></line>
      <line class="cls-1" x1="9.61" y1="13.08" x2="6.56" y2="10.81"></line>
      <line class="cls-1" x1="5.12" y1="24.32" x2="1.25" y2="23.16"></line>
      <path class="cls-1" d="M8.33,11.63a9.94,9.94,0,0,1,7.09-4.26s1.81-5,8.32-5.92v6.1l5.76,1,1.32,2.35S41,18.38,43.15,21.32c0,0,1.84,7-3.49,6.06,0,0-16.25-5.42-16-.46,0,0,14.19,8.8,13.64,22.57H12.55s.27-6.9-4.16-9.71C2.74,36.2,2.05,31.81,3,24.19"></path>
      <path class="cls-2" d="M39.42,56.08c2.94,1.66,5,8.41,5,8.41H5s2.09-6.75,5-8.41Z"></path>
    </g>
  </g>
</svg>