<svg xmlns="http://www.w3.org/2000/svg" viewBox="0 0 50.32 67.04">
  <defs>
    <style>.cls-1{fill:#394553;}.cls-2,.cls-3{fill:none;stroke:#394553;stroke-width:2.5px;}.cls-2{stroke-linejoin:round;}.cls-3{stroke-miterlimit:10;}</style>
  </defs>
  <title>Asset 15</title>
  <g id="Layer_2" data-name="Layer 2">
    <g id="Calque_2" data-name="Calque 2">
      <path class="cls-1" d="M32.19,33.29A15.63,15.63,0,1,1,16.57,48.91,15.64,15.64,0,0,1,32.19,33.29m0-2.5A18.13,18.13,0,1,0,50.32,48.91,18.12,18.12,0,0,0,32.19,30.79Z"></path>
      <line class="cls-2" x1="49.27" y1="48.91" x2="15.24" y2="48.91"></line>
      <path class="cls-2" d="M31.68,32.17s-12.94,14.18,0,33.51"></path>
      <path class="cls-2" d="M32.71,32.17s12.93,14.18,0,33.51"></path>
      <path class="cls-3" d="M19.17,8.17a6.92,6.92,0,1,1-6.91-6.92A6.91,6.91,0,0,1,19.17,8.17Z"></path>
      <path class="cls-3" d="M23.23,29.43V26.88a5.44,5.44,0,0,0-5.44-5.43H6.68A5.45,5.45,0,0,0,1.25,26.9l0,14.94a5.45,5.45,0,0,0,5.44,5.43V64.92"></path>
    </g>
  </g>
</svg>