<svg xmlns="http://www.w3.org/2000/svg" version="1.1" xmlns:xlink="http://www.w3.org/1999/xlink" xmlns:svgjs="http://svgjs.com/svgjs" width="512" height="512" x="0" y="0" viewBox="0 0 6.82666 6.82666" style="enable-background:new 0 0 512 512" xml:space="preserve" class="">
  <g>
    <g id="Layer_x0020_1">
      <g id="_581419696">
        <path id="_581420224" d="m2.30061 3.49433c.0134016 0 .0267874.00377559.0383583.0114528.0219331.0142402.0341024.0395827.0314252.0656457-.0383622.37965-.136902.733484-.292929 1.05175-.137874.281118-.318386.527882-.539213.737626 1.07794-.57624 1.51666-1.80569 1.36867-2.79898-.0929331-.6235-.463571-1.28986-1.22507-1.28986-.657228-.00000394-1.19206.534823-1.19206 1.19218.00001181.657228.534827 1.19206 1.19206 1.19206.204866-.00000787.406811-.0528622.584272-.152862.0107205-.00609055.0226575-.00900787.0344803-.00901181zm-1.218 2.20068c-.0269252 0-.0522598-.0155827-.0639528-.0410394-.0144961-.0320354-.00316535-.0699134.0266732-.0886693.80839-.505717 1.08585-1.27817 1.17014-1.88011-.167476.0730748-.349567.111327-.533606.111327-.734701-.00000787-1.33238-.597795-1.33238-1.33237.00001181-.734701.597677-1.33249 1.33238-1.33249.366626-.00000787.688902.143232.932012.414118.222413.247732.371736.591949.431783.995472.176862 1.18645-.443961 2.69398-1.94259 3.15073-.00682283.00206299-.0137677.00303937-.0204567.00303543z" fill="#2575fc33" data-original="#000000"></path>
        <path id="_581419744" d="m5.70273 3.49433c.0134016 0 .0267953.00377559.0384882.0114528.0219291.0142402.0339803.0395827.0314252.0656457-.0383661.37965-.137024.733484-.293051 1.05175-.137866.281118-.318264.527882-.539087.737626 1.0777-.57624 1.51653-1.80569 1.36854-2.79898-.0929213-.6235-.463445-1.28986-1.22494-1.28986-.657354-.00000394-1.19206.534823-1.19206 1.19218.00000787.657228.534701 1.19206 1.19206 1.19206.204756-.00000787.406815-.0528622.58428-.152862.0107244-.00609055.0225276-.00900787.0343465-.00901181zm-1.218 2.20068c-.0269094 0-.052252-.0155827-.0638228-.0410394-.0146102-.0320354-.00316929-.0699134.0265512-.0886693.80852-.505717 1.08585-1.27817 1.17013-1.88011-.167461.0730748-.349441.111327-.533484.111327-.734689-.00000787-1.33237-.597795-1.33237-1.33237.00000787-.734701.597673-1.33249 1.33237-1.33249.3665-.00000787.68878.143232.931894.414118.222421.247732.371736.591949.431906.99535.176736 1.18657-.444083 2.6941-1.94271 3.15085-.00681496.00206299-.0136457.00303937-.0204646.00303543z" fill="#2575fc33" data-original="#000000"></path>
      </g>
    </g>
  </g>
</svg>